<svg width="566" height="64" viewBox="0 0 566 64" fill="none" xmlns="http://www.w3.org/2000/svg">
<g filter="url(#filter0_dd_112_83)">
<path d="M3 19C3 13.3995 3 10.5992 4.08993 8.46009C5.04867 6.57847 6.57847 5.04867 8.46009 4.08993C10.5992 3 13.3995 3 19 3H547C552.601 3 555.401 3 557.54 4.08993C559.422 5.04867 560.951 6.57847 561.91 8.46009C563 10.5992 563 13.3995 563 19V43C563 48.6005 563 51.4008 561.91 53.5399C560.951 55.4215 559.422 56.9513 557.54 57.9101C555.401 59 552.601 59 547 59H19C13.3995 59 10.5992 59 8.46009 57.9101C6.57847 56.9513 5.04867 55.4215 4.08993 53.5399C3 51.4008 3 48.6005 3 43V19Z" fill="#1877F2" shape-rendering="crispEdges"/>
<rect width="24" height="24" transform="translate(166.5 19)" fill="#1877F2"/>
<path d="M190 31.0699C190 24.7186 184.851 19.5699 178.5 19.5699C172.149 19.5699 167 24.7186 167 31.0699C167 36.8098 171.205 41.5674 176.703 42.4301V34.3941H173.783V31.0699H176.703V28.5363C176.703 25.6541 178.42 24.062 181.047 24.062C182.305 24.062 183.621 24.2866 183.621 24.2866V27.1167H182.171C180.742 27.1167 180.297 28.0032 180.297 28.9126V31.0699H183.486L182.976 34.3941H180.297V42.4301C185.795 41.5674 190 36.8098 190 31.0699Z" fill="white"/>
<path d="M211.8 38.22C210.707 38.22 209.693 38.0267 208.76 37.64C207.827 37.24 206.927 36.64 206.06 35.84L207 34.72C207.84 35.5067 208.627 36.0667 209.36 36.4C210.107 36.7333 210.933 36.9 211.84 36.9C212.56 36.9 213.2 36.78 213.76 36.54C214.333 36.2867 214.78 35.9467 215.1 35.52C215.42 35.0933 215.58 34.6067 215.58 34.06C215.58 33.3533 215.347 32.82 214.88 32.46C214.413 32.0867 213.607 31.8 212.46 31.6L210.2 31.22C208.92 30.9933 207.98 30.6067 207.38 30.06C206.793 29.5 206.5 28.7533 206.5 27.82C206.5 27.0333 206.7 26.34 207.1 25.74C207.513 25.1267 208.08 24.6467 208.8 24.3C209.52 23.9533 210.353 23.78 211.3 23.78C212.34 23.78 213.307 23.9267 214.2 24.22C215.093 24.5 215.973 24.9467 216.84 25.56L216.04 26.76C215.32 26.2133 214.56 25.8 213.76 25.52C212.96 25.2267 212.147 25.08 211.32 25.08C210.667 25.08 210.087 25.1933 209.58 25.42C209.087 25.6467 208.693 25.9533 208.4 26.34C208.12 26.7267 207.98 27.1667 207.98 27.66C207.98 28.2733 208.187 28.7533 208.6 29.1C209.013 29.4467 209.687 29.6933 210.62 29.84L212.86 30.22C214.353 30.4867 215.433 30.92 216.1 31.52C216.78 32.1067 217.12 32.9267 217.12 33.98C217.12 34.7933 216.887 35.52 216.42 36.16C215.967 36.8 215.34 37.3067 214.54 37.68C213.74 38.04 212.827 38.22 211.8 38.22ZM219.441 38V28.24H220.901V38H219.441ZM220.181 25.82C219.888 25.82 219.634 25.72 219.421 25.52C219.221 25.3067 219.121 25.06 219.121 24.78C219.121 24.5 219.221 24.26 219.421 24.06C219.634 23.8467 219.888 23.74 220.181 23.74C220.474 23.74 220.721 23.8467 220.921 24.06C221.134 24.26 221.241 24.5 221.241 24.78C221.241 25.06 221.134 25.3067 220.921 25.52C220.721 25.72 220.474 25.82 220.181 25.82ZM228.415 42.38C227.761 42.38 227.101 42.2867 226.435 42.1C225.781 41.9267 225.175 41.68 224.615 41.36L225.235 40.24C225.835 40.5467 226.381 40.7733 226.875 40.92C227.368 41.0667 227.861 41.14 228.355 41.14C229.248 41.14 229.921 40.9267 230.375 40.5C230.841 40.0733 231.075 39.4533 231.075 38.64V36.68C230.701 37.1467 230.248 37.5067 229.715 37.76C229.181 38 228.595 38.12 227.955 38.12C227.115 38.12 226.355 37.9 225.675 37.46C224.995 37.0067 224.455 36.4067 224.055 35.66C223.655 34.9 223.455 34.0533 223.455 33.12C223.455 32.1867 223.655 31.3467 224.055 30.6C224.468 29.84 225.021 29.24 225.715 28.8C226.408 28.3467 227.181 28.12 228.035 28.12C228.648 28.12 229.215 28.24 229.735 28.48C230.255 28.7067 230.708 29.0467 231.095 29.5V28.24H232.535V38.62C232.535 39.8333 232.181 40.76 231.475 41.4C230.768 42.0533 229.748 42.38 228.415 42.38ZM228.315 36.86C228.888 36.86 229.415 36.7467 229.895 36.52C230.375 36.28 230.768 35.9533 231.075 35.54V30.72C230.755 30.3067 230.348 29.9867 229.855 29.76C229.375 29.52 228.861 29.4 228.315 29.4C227.661 29.4 227.075 29.56 226.555 29.88C226.048 30.2 225.641 30.64 225.335 31.2C225.041 31.76 224.895 32.4 224.895 33.12C224.895 33.8267 225.041 34.4667 225.335 35.04C225.641 35.6 226.048 36.0467 226.555 36.38C227.075 36.7 227.661 36.86 228.315 36.86ZM235.535 38V28.24H236.995V29.82C237.368 29.2333 237.815 28.8 238.335 28.52C238.855 28.2267 239.442 28.08 240.095 28.08C240.802 28.08 241.415 28.2333 241.935 28.54C242.468 28.8333 242.882 29.2533 243.175 29.8C243.482 30.3333 243.635 30.96 243.635 31.68V38H242.175V32.1C242.175 31.2333 241.935 30.5533 241.455 30.06C240.988 29.5533 240.355 29.3 239.555 29.3C239.022 29.3 238.535 29.4267 238.095 29.68C237.655 29.9333 237.288 30.3067 236.995 30.8V38H235.535ZM251.498 38V24H253.038V38H251.498ZM256.297 38V28.24H257.757V29.82C258.13 29.2333 258.577 28.8 259.097 28.52C259.617 28.2267 260.204 28.08 260.857 28.08C261.564 28.08 262.177 28.2333 262.697 28.54C263.23 28.8333 263.644 29.2533 263.937 29.8C264.244 30.3333 264.397 30.96 264.397 31.68V38H262.937V32.1C262.937 31.2333 262.697 30.5533 262.217 30.06C261.75 29.5533 261.117 29.3 260.317 29.3C259.784 29.3 259.297 29.4267 258.857 29.68C258.417 29.9333 258.05 30.3067 257.757 30.8V38H256.297ZM273.74 38L271.06 28.24H272.48L274.52 36.04L276.86 28.24H278.16L280.5 36.04L282.52 28.24H283.9L281.24 38H279.82L277.5 30.12L275.18 38H273.74ZM285.945 38V28.24H287.405V38H285.945ZM286.685 25.82C286.392 25.82 286.138 25.72 285.925 25.52C285.725 25.3067 285.625 25.06 285.625 24.78C285.625 24.5 285.725 24.26 285.925 24.06C286.138 23.8467 286.392 23.74 286.685 23.74C286.978 23.74 287.225 23.8467 287.425 24.06C287.638 24.26 287.745 24.5 287.745 24.78C287.745 25.06 287.638 25.3067 287.425 25.52C287.225 25.72 286.978 25.82 286.685 25.82ZM294.118 38.2C293.278 38.2 292.638 38 292.198 37.6C291.772 37.1867 291.558 36.5933 291.558 35.82V29.44H289.538V28.24H291.558V25.56L293.018 25.22V28.24H295.818V29.44H293.018V35.44C293.018 35.96 293.125 36.3333 293.338 36.56C293.565 36.7867 293.932 36.9 294.438 36.9C294.692 36.9 294.918 36.88 295.118 36.84C295.318 36.8 295.552 36.7333 295.818 36.64V37.94C295.552 38.0333 295.272 38.1 294.978 38.14C294.685 38.18 294.398 38.2 294.118 38.2ZM297.957 38V23.56L299.417 23.26V29.82C299.79 29.2333 300.237 28.8 300.757 28.52C301.277 28.2267 301.864 28.08 302.517 28.08C303.224 28.08 303.837 28.2333 304.357 28.54C304.89 28.8333 305.304 29.2533 305.597 29.8C305.904 30.3333 306.057 30.96 306.057 31.68V38H304.597V32.1C304.597 31.2333 304.357 30.5533 303.877 30.06C303.41 29.5533 302.777 29.3 301.977 29.3C301.444 29.3 300.957 29.4267 300.517 29.68C300.077 29.9333 299.71 30.3067 299.417 30.8V38H297.957ZM313.94 38V24H323.5V25.36H315.48V30.36H320.96V31.7H315.48V38H313.94ZM327.579 38.18C326.885 38.18 326.272 38.0533 325.739 37.8C325.205 37.5467 324.785 37.2 324.479 36.76C324.185 36.3067 324.039 35.7867 324.039 35.2C324.039 34.6133 324.192 34.1067 324.499 33.68C324.805 33.24 325.232 32.9 325.779 32.66C326.325 32.42 326.965 32.3 327.699 32.3C328.259 32.3 328.785 32.36 329.279 32.48C329.785 32.6 330.252 32.7933 330.679 33.06V31.72C330.679 30.92 330.465 30.32 330.039 29.92C329.612 29.5067 328.985 29.3 328.159 29.3C327.705 29.3 327.239 29.3667 326.759 29.5C326.292 29.6333 325.772 29.8467 325.199 30.14L324.659 29.02C325.965 28.3933 327.192 28.08 328.339 28.08C329.552 28.08 330.485 28.38 331.139 28.98C331.792 29.5667 332.119 30.4133 332.119 31.52V38H330.679V36.86C330.252 37.3 329.779 37.6333 329.259 37.86C328.739 38.0733 328.179 38.18 327.579 38.18ZM325.439 35.16C325.439 35.7333 325.659 36.1933 326.099 36.54C326.552 36.8867 327.145 37.06 327.879 37.06C328.425 37.06 328.925 36.9667 329.379 36.78C329.845 36.5933 330.279 36.3133 330.679 35.94V34.06C330.265 33.82 329.839 33.6467 329.399 33.54C328.959 33.42 328.465 33.36 327.919 33.36C327.172 33.36 326.572 33.5267 326.119 33.86C325.665 34.18 325.439 34.6133 325.439 35.16ZM339.466 38.16C338.559 38.16 337.739 37.94 337.006 37.5C336.286 37.0467 335.713 36.44 335.286 35.68C334.859 34.9067 334.646 34.0533 334.646 33.12C334.646 32.1733 334.859 31.32 335.286 30.56C335.713 29.8 336.286 29.2 337.006 28.76C337.739 28.3067 338.559 28.08 339.466 28.08C340.186 28.08 340.873 28.2133 341.526 28.48C342.179 28.7467 342.746 29.12 343.226 29.6L342.286 30.62C341.939 30.2333 341.519 29.9333 341.026 29.72C340.533 29.5067 340.033 29.4 339.526 29.4C338.886 29.4 338.306 29.5667 337.786 29.9C337.279 30.2333 336.873 30.68 336.566 31.24C336.259 31.8 336.106 32.4267 336.106 33.12C336.106 33.8133 336.259 34.44 336.566 35C336.873 35.56 337.279 36.0067 337.786 36.34C338.306 36.6733 338.886 36.84 339.526 36.84C340.033 36.84 340.533 36.7333 341.026 36.52C341.519 36.2933 341.939 35.9933 342.286 35.62L343.226 36.64C342.746 37.12 342.179 37.4933 341.526 37.76C340.873 38.0267 340.186 38.16 339.466 38.16ZM349.369 38.2C348.462 38.2 347.642 37.98 346.909 37.54C346.175 37.0867 345.595 36.48 345.169 35.72C344.742 34.9467 344.529 34.08 344.529 33.12C344.529 32.16 344.729 31.3 345.129 30.54C345.542 29.78 346.095 29.18 346.789 28.74C347.482 28.3 348.255 28.08 349.109 28.08C349.975 28.08 350.742 28.3 351.409 28.74C352.089 29.1667 352.622 29.7533 353.009 30.5C353.409 31.2333 353.609 32.0667 353.609 33V33.44H345.949C346.002 34.1067 346.182 34.7067 346.489 35.24C346.809 35.76 347.222 36.1733 347.729 36.48C348.249 36.7733 348.815 36.92 349.429 36.92C349.935 36.92 350.422 36.8333 350.889 36.66C351.369 36.4733 351.775 36.2267 352.109 35.92L353.029 36.9C352.469 37.34 351.889 37.6667 351.289 37.88C350.689 38.0933 350.049 38.2 349.369 38.2ZM345.989 32.4H352.169C352.102 31.8133 351.922 31.2933 351.629 30.84C351.349 30.3733 350.989 30.0067 350.549 29.74C350.122 29.4733 349.642 29.34 349.109 29.34C348.575 29.34 348.089 29.4733 347.649 29.74C347.209 29.9933 346.842 30.3533 346.549 30.82C346.269 31.2733 346.082 31.8 345.989 32.4ZM356.102 38V23.7L357.562 23.4V29.58C357.935 29.1133 358.388 28.7533 358.922 28.5C359.455 28.2467 360.048 28.12 360.702 28.12C361.555 28.12 362.315 28.3467 362.982 28.8C363.662 29.24 364.202 29.84 364.602 30.6C365.002 31.3467 365.202 32.1867 365.202 33.12C365.202 34.0533 364.995 34.9 364.582 35.66C364.182 36.42 363.635 37.0267 362.942 37.48C362.262 37.92 361.488 38.14 360.622 38.14C360.008 38.14 359.435 38.02 358.902 37.78C358.382 37.5267 357.928 37.1733 357.542 36.72V38H356.102ZM360.342 36.88C360.995 36.88 361.575 36.72 362.082 36.4C362.602 36.0667 363.008 35.62 363.302 35.06C363.608 34.4867 363.762 33.8467 363.762 33.14C363.762 32.42 363.608 31.78 363.302 31.22C363.008 30.66 362.602 30.22 362.082 29.9C361.575 29.5667 360.995 29.4 360.342 29.4C359.768 29.4 359.235 29.52 358.742 29.76C358.262 29.9867 357.868 30.3133 357.562 30.74V35.52C357.882 35.9467 358.282 36.28 358.762 36.52C359.255 36.76 359.782 36.88 360.342 36.88ZM372.082 38.16C371.175 38.16 370.362 37.94 369.642 37.5C368.922 37.06 368.355 36.46 367.942 35.7C367.528 34.94 367.322 34.08 367.322 33.12C367.322 32.16 367.528 31.3 367.942 30.54C368.355 29.78 368.922 29.18 369.642 28.74C370.362 28.3 371.175 28.08 372.082 28.08C372.975 28.08 373.775 28.3 374.482 28.74C375.202 29.18 375.768 29.78 376.182 30.54C376.595 31.3 376.802 32.16 376.802 33.12C376.802 34.08 376.595 34.94 376.182 35.7C375.768 36.46 375.202 37.06 374.482 37.5C373.775 37.94 372.975 38.16 372.082 38.16ZM372.062 36.88C372.702 36.88 373.268 36.72 373.762 36.4C374.255 36.0667 374.642 35.6133 374.922 35.04C375.215 34.4667 375.362 33.8267 375.362 33.12C375.362 32.4 375.215 31.76 374.922 31.2C374.642 30.6267 374.255 30.18 373.762 29.86C373.268 29.5267 372.702 29.36 372.062 29.36C371.422 29.36 370.855 29.5267 370.362 29.86C369.868 30.18 369.475 30.6267 369.182 31.2C368.902 31.76 368.762 32.4 368.762 33.12C368.762 33.8267 368.902 34.4667 369.182 35.04C369.475 35.6133 369.868 36.0667 370.362 36.4C370.855 36.72 371.422 36.88 372.062 36.88ZM383.683 38.16C382.777 38.16 381.963 37.94 381.243 37.5C380.523 37.06 379.957 36.46 379.543 35.7C379.13 34.94 378.923 34.08 378.923 33.12C378.923 32.16 379.13 31.3 379.543 30.54C379.957 29.78 380.523 29.18 381.243 28.74C381.963 28.3 382.777 28.08 383.683 28.08C384.577 28.08 385.377 28.3 386.083 28.74C386.803 29.18 387.37 29.78 387.783 30.54C388.197 31.3 388.403 32.16 388.403 33.12C388.403 34.08 388.197 34.94 387.783 35.7C387.37 36.46 386.803 37.06 386.083 37.5C385.377 37.94 384.577 38.16 383.683 38.16ZM383.663 36.88C384.303 36.88 384.87 36.72 385.363 36.4C385.857 36.0667 386.243 35.6133 386.523 35.04C386.817 34.4667 386.963 33.8267 386.963 33.12C386.963 32.4 386.817 31.76 386.523 31.2C386.243 30.6267 385.857 30.18 385.363 29.86C384.87 29.5267 384.303 29.36 383.663 29.36C383.023 29.36 382.457 29.5267 381.963 29.86C381.47 30.18 381.077 30.6267 380.783 31.2C380.503 31.76 380.363 32.4 380.363 33.12C380.363 33.8267 380.503 34.4667 380.783 35.04C381.077 35.6133 381.47 36.0667 381.963 36.4C382.457 36.72 383.023 36.88 383.663 36.88ZM390.965 38V23.56L392.425 23.26V32.62L397.065 28.24H398.825L393.865 32.88L399.045 38H397.125L392.425 33.34V38H390.965Z" fill="white"/>
</g>
<defs>
<filter id="filter0_dd_112_83" x="0" y="0" width="566" height="64" filterUnits="userSpaceOnUse" color-interpolation-filters="sRGB">
<feFlood flood-opacity="0" result="BackgroundImageFix"/>
<feColorMatrix in="SourceAlpha" type="matrix" values="0 0 0 0 0 0 0 0 0 0 0 0 0 0 0 0 0 0 127 0" result="hardAlpha"/>
<feOffset dy="2"/>
<feGaussianBlur stdDeviation="1.5"/>
<feComposite in2="hardAlpha" operator="out"/>
<feColorMatrix type="matrix" values="0 0 0 0 0.0509804 0 0 0 0 0.376471 0 0 0 0 0.435294 0 0 0 0.16 0"/>
<feBlend mode="normal" in2="BackgroundImageFix" result="effect1_dropShadow_112_83"/>
<feColorMatrix in="SourceAlpha" type="matrix" values="0 0 0 0 0 0 0 0 0 0 0 0 0 0 0 0 0 0 127 0" result="hardAlpha"/>
<feOffset/>
<feGaussianBlur stdDeviation="1.5"/>
<feComposite in2="hardAlpha" operator="out"/>
<feColorMatrix type="matrix" values="0 0 0 0 0.0509804 0 0 0 0 0.376471 0 0 0 0 0.435294 0 0 0 0.08 0"/>
<feBlend mode="normal" in2="effect1_dropShadow_112_83" result="effect2_dropShadow_112_83"/>
<feBlend mode="normal" in="SourceGraphic" in2="effect2_dropShadow_112_83" result="shape"/>
</filter>
</defs>
</svg>
