<svg width="566" height="64" viewBox="0 0 566 64" fill="none" xmlns="http://www.w3.org/2000/svg">
<g filter="url(#filter0_dd_112_96)">
<path d="M3 23C3 13.5719 3 8.85786 5.92893 5.92893C8.85786 3 13.5719 3 23 3H543C552.428 3 557.142 3 560.071 5.92893C563 8.85786 563 13.5719 563 23V39C563 48.4281 563 53.1421 560.071 56.0711C557.142 59 552.428 59 543 59H23C13.5719 59 8.85786 59 5.92893 56.0711C3 53.1421 3 48.4281 3 39V23Z" fill="white"/>
<rect width="24" height="24" transform="translate(176.5 19)" fill="white"/>
<path fill-rule="evenodd" clip-rule="evenodd" d="M199.54 31.2614C199.54 30.4459 199.467 29.6618 199.331 28.9091H188.5V33.3575H194.689C194.422 34.795 193.612 36.013 192.394 36.8284V39.7139H196.111C198.285 37.7118 199.54 34.7636 199.54 31.2614Z" fill="#4285F4"/>
<path fill-rule="evenodd" clip-rule="evenodd" d="M188.5 42.4998C191.605 42.4998 194.208 41.4701 196.111 39.7137L192.394 36.8282C191.365 37.5182 190.047 37.926 188.5 37.926C185.505 37.926 182.97 35.903 182.065 33.1848H178.223V36.1644C180.115 39.9228 184.005 42.4998 188.5 42.4998Z" fill="#34A853"/>
<path fill-rule="evenodd" clip-rule="evenodd" d="M182.065 33.1851C181.835 32.4951 181.705 31.758 181.705 31.0001C181.705 30.2421 181.835 29.5051 182.065 28.8151V25.8355H178.223C177.444 27.388 177 29.1444 177 31.0001C177 32.8557 177.444 34.6121 178.223 36.1646L182.065 33.1851Z" fill="#FBBC05"/>
<path fill-rule="evenodd" clip-rule="evenodd" d="M188.5 24.0739C190.188 24.0739 191.704 24.6541 192.896 25.7936L196.195 22.4952C194.203 20.6395 191.6 19.5 188.5 19.5C184.005 19.5 180.115 22.077 178.223 25.8355L182.065 28.815C182.97 26.0968 185.505 24.0739 188.5 24.0739Z" fill="#EA4335"/>
<path d="M221.8 38.22C220.707 38.22 219.693 38.0267 218.76 37.64C217.827 37.24 216.927 36.64 216.06 35.84L217 34.72C217.84 35.5067 218.627 36.0667 219.36 36.4C220.107 36.7333 220.933 36.9 221.84 36.9C222.56 36.9 223.2 36.78 223.76 36.54C224.333 36.2867 224.78 35.9467 225.1 35.52C225.42 35.0933 225.58 34.6067 225.58 34.06C225.58 33.3533 225.347 32.82 224.88 32.46C224.413 32.0867 223.607 31.8 222.46 31.6L220.2 31.22C218.92 30.9933 217.98 30.6067 217.38 30.06C216.793 29.5 216.5 28.7533 216.5 27.82C216.5 27.0333 216.7 26.34 217.1 25.74C217.513 25.1267 218.08 24.6467 218.8 24.3C219.52 23.9533 220.353 23.78 221.3 23.78C222.34 23.78 223.307 23.9267 224.2 24.22C225.093 24.5 225.973 24.9467 226.84 25.56L226.04 26.76C225.32 26.2133 224.56 25.8 223.76 25.52C222.96 25.2267 222.147 25.08 221.32 25.08C220.667 25.08 220.087 25.1933 219.58 25.42C219.087 25.6467 218.693 25.9533 218.4 26.34C218.12 26.7267 217.98 27.1667 217.98 27.66C217.98 28.2733 218.187 28.7533 218.6 29.1C219.013 29.4467 219.687 29.6933 220.62 29.84L222.86 30.22C224.353 30.4867 225.433 30.92 226.1 31.52C226.78 32.1067 227.12 32.9267 227.12 33.98C227.12 34.7933 226.887 35.52 226.42 36.16C225.967 36.8 225.34 37.3067 224.54 37.68C223.74 38.04 222.827 38.22 221.8 38.22ZM229.441 38V28.24H230.901V38H229.441ZM230.181 25.82C229.888 25.82 229.634 25.72 229.421 25.52C229.221 25.3067 229.121 25.06 229.121 24.78C229.121 24.5 229.221 24.26 229.421 24.06C229.634 23.8467 229.888 23.74 230.181 23.74C230.474 23.74 230.721 23.8467 230.921 24.06C231.134 24.26 231.241 24.5 231.241 24.78C231.241 25.06 231.134 25.3067 230.921 25.52C230.721 25.72 230.474 25.82 230.181 25.82ZM238.415 42.38C237.761 42.38 237.101 42.2867 236.435 42.1C235.781 41.9267 235.175 41.68 234.615 41.36L235.235 40.24C235.835 40.5467 236.381 40.7733 236.875 40.92C237.368 41.0667 237.861 41.14 238.355 41.14C239.248 41.14 239.921 40.9267 240.375 40.5C240.841 40.0733 241.075 39.4533 241.075 38.64V36.68C240.701 37.1467 240.248 37.5067 239.715 37.76C239.181 38 238.595 38.12 237.955 38.12C237.115 38.12 236.355 37.9 235.675 37.46C234.995 37.0067 234.455 36.4067 234.055 35.66C233.655 34.9 233.455 34.0533 233.455 33.12C233.455 32.1867 233.655 31.3467 234.055 30.6C234.468 29.84 235.021 29.24 235.715 28.8C236.408 28.3467 237.181 28.12 238.035 28.12C238.648 28.12 239.215 28.24 239.735 28.48C240.255 28.7067 240.708 29.0467 241.095 29.5V28.24H242.535V38.62C242.535 39.8333 242.181 40.76 241.475 41.4C240.768 42.0533 239.748 42.38 238.415 42.38ZM238.315 36.86C238.888 36.86 239.415 36.7467 239.895 36.52C240.375 36.28 240.768 35.9533 241.075 35.54V30.72C240.755 30.3067 240.348 29.9867 239.855 29.76C239.375 29.52 238.861 29.4 238.315 29.4C237.661 29.4 237.075 29.56 236.555 29.88C236.048 30.2 235.641 30.64 235.335 31.2C235.041 31.76 234.895 32.4 234.895 33.12C234.895 33.8267 235.041 34.4667 235.335 35.04C235.641 35.6 236.048 36.0467 236.555 36.38C237.075 36.7 237.661 36.86 238.315 36.86ZM245.535 38V28.24H246.995V29.82C247.368 29.2333 247.815 28.8 248.335 28.52C248.855 28.2267 249.442 28.08 250.095 28.08C250.802 28.08 251.415 28.2333 251.935 28.54C252.468 28.8333 252.882 29.2533 253.175 29.8C253.482 30.3333 253.635 30.96 253.635 31.68V38H252.175V32.1C252.175 31.2333 251.935 30.5533 251.455 30.06C250.988 29.5533 250.355 29.3 249.555 29.3C249.022 29.3 248.535 29.4267 248.095 29.68C247.655 29.9333 247.288 30.3067 246.995 30.8V38H245.535ZM261.498 38V24H263.038V38H261.498ZM266.297 38V28.24H267.757V29.82C268.13 29.2333 268.577 28.8 269.097 28.52C269.617 28.2267 270.204 28.08 270.857 28.08C271.564 28.08 272.177 28.2333 272.697 28.54C273.23 28.8333 273.644 29.2533 273.937 29.8C274.244 30.3333 274.397 30.96 274.397 31.68V38H272.937V32.1C272.937 31.2333 272.697 30.5533 272.217 30.06C271.75 29.5533 271.117 29.3 270.317 29.3C269.784 29.3 269.297 29.4267 268.857 29.68C268.417 29.9333 268.05 30.3067 267.757 30.8V38H266.297ZM283.74 38L281.06 28.24H282.48L284.52 36.04L286.86 28.24H288.16L290.5 36.04L292.52 28.24H293.9L291.24 38H289.82L287.5 30.12L285.18 38H283.74ZM295.945 38V28.24H297.405V38H295.945ZM296.685 25.82C296.392 25.82 296.138 25.72 295.925 25.52C295.725 25.3067 295.625 25.06 295.625 24.78C295.625 24.5 295.725 24.26 295.925 24.06C296.138 23.8467 296.392 23.74 296.685 23.74C296.978 23.74 297.225 23.8467 297.425 24.06C297.638 24.26 297.745 24.5 297.745 24.78C297.745 25.06 297.638 25.3067 297.425 25.52C297.225 25.72 296.978 25.82 296.685 25.82ZM304.118 38.2C303.278 38.2 302.638 38 302.198 37.6C301.772 37.1867 301.558 36.5933 301.558 35.82V29.44H299.538V28.24H301.558V25.56L303.018 25.22V28.24H305.818V29.44H303.018V35.44C303.018 35.96 303.125 36.3333 303.338 36.56C303.565 36.7867 303.932 36.9 304.438 36.9C304.692 36.9 304.918 36.88 305.118 36.84C305.318 36.8 305.552 36.7333 305.818 36.64V37.94C305.552 38.0333 305.272 38.1 304.978 38.14C304.685 38.18 304.398 38.2 304.118 38.2ZM307.957 38V23.56L309.417 23.26V29.82C309.79 29.2333 310.237 28.8 310.757 28.52C311.277 28.2267 311.864 28.08 312.517 28.08C313.224 28.08 313.837 28.2333 314.357 28.54C314.89 28.8333 315.304 29.2533 315.597 29.8C315.904 30.3333 316.057 30.96 316.057 31.68V38H314.597V32.1C314.597 31.2333 314.357 30.5533 313.877 30.06C313.41 29.5533 312.777 29.3 311.977 29.3C311.444 29.3 310.957 29.4267 310.517 29.68C310.077 29.9333 309.71 30.3067 309.417 30.8V38H307.957ZM330.36 38.22C329.36 38.22 328.433 38.0333 327.58 37.66C326.727 37.2867 325.973 36.7733 325.32 36.12C324.68 35.4533 324.18 34.6867 323.82 33.82C323.46 32.94 323.28 32 323.28 31C323.28 30 323.46 29.0667 323.82 28.2C324.18 27.32 324.68 26.5533 325.32 25.9C325.973 25.2333 326.727 24.7133 327.58 24.34C328.433 23.9667 329.36 23.78 330.36 23.78C331.427 23.78 332.433 23.9733 333.38 24.36C334.34 24.7467 335.153 25.32 335.82 26.08L334.78 27.12C334.26 26.4933 333.607 26.0133 332.82 25.68C332.033 25.3467 331.213 25.18 330.36 25.18C329.573 25.18 328.847 25.3333 328.18 25.64C327.513 25.9333 326.927 26.3467 326.42 26.88C325.927 27.4 325.54 28.0133 325.26 28.72C324.98 29.4267 324.84 30.1867 324.84 31C324.84 31.8133 324.98 32.5733 325.26 33.28C325.54 33.9867 325.927 34.6067 326.42 35.14C326.927 35.66 327.513 36.0733 328.18 36.38C328.847 36.6733 329.573 36.82 330.36 36.82C331.293 36.82 332.127 36.6133 332.86 36.2C333.607 35.7867 334.207 35.22 334.66 34.5C335.127 33.7667 335.4 32.9467 335.48 32.04H330.76V30.68H337.04V31.3C337.04 32.2733 336.873 33.18 336.54 34.02C336.207 34.8467 335.733 35.58 335.12 36.22C334.52 36.8467 333.813 37.34 333 37.7C332.187 38.0467 331.307 38.22 330.36 38.22ZM343.957 38.16C343.05 38.16 342.237 37.94 341.517 37.5C340.797 37.06 340.23 36.46 339.817 35.7C339.403 34.94 339.197 34.08 339.197 33.12C339.197 32.16 339.403 31.3 339.817 30.54C340.23 29.78 340.797 29.18 341.517 28.74C342.237 28.3 343.05 28.08 343.957 28.08C344.85 28.08 345.65 28.3 346.357 28.74C347.077 29.18 347.643 29.78 348.057 30.54C348.47 31.3 348.677 32.16 348.677 33.12C348.677 34.08 348.47 34.94 348.057 35.7C347.643 36.46 347.077 37.06 346.357 37.5C345.65 37.94 344.85 38.16 343.957 38.16ZM343.937 36.88C344.577 36.88 345.143 36.72 345.637 36.4C346.13 36.0667 346.517 35.6133 346.797 35.04C347.09 34.4667 347.237 33.8267 347.237 33.12C347.237 32.4 347.09 31.76 346.797 31.2C346.517 30.6267 346.13 30.18 345.637 29.86C345.143 29.5267 344.577 29.36 343.937 29.36C343.297 29.36 342.73 29.5267 342.237 29.86C341.743 30.18 341.35 30.6267 341.057 31.2C340.777 31.76 340.637 32.4 340.637 33.12C340.637 33.8267 340.777 34.4667 341.057 35.04C341.35 35.6133 341.743 36.0667 342.237 36.4C342.73 36.72 343.297 36.88 343.937 36.88ZM355.558 38.16C354.652 38.16 353.838 37.94 353.118 37.5C352.398 37.06 351.832 36.46 351.418 35.7C351.005 34.94 350.798 34.08 350.798 33.12C350.798 32.16 351.005 31.3 351.418 30.54C351.832 29.78 352.398 29.18 353.118 28.74C353.838 28.3 354.652 28.08 355.558 28.08C356.452 28.08 357.252 28.3 357.958 28.74C358.678 29.18 359.245 29.78 359.658 30.54C360.072 31.3 360.278 32.16 360.278 33.12C360.278 34.08 360.072 34.94 359.658 35.7C359.245 36.46 358.678 37.06 357.958 37.5C357.252 37.94 356.452 38.16 355.558 38.16ZM355.538 36.88C356.178 36.88 356.745 36.72 357.238 36.4C357.732 36.0667 358.118 35.6133 358.398 35.04C358.692 34.4667 358.838 33.8267 358.838 33.12C358.838 32.4 358.692 31.76 358.398 31.2C358.118 30.6267 357.732 30.18 357.238 29.86C356.745 29.5267 356.178 29.36 355.538 29.36C354.898 29.36 354.332 29.5267 353.838 29.86C353.345 30.18 352.952 30.6267 352.658 31.2C352.378 31.76 352.238 32.4 352.238 33.12C352.238 33.8267 352.378 34.4667 352.658 35.04C352.952 35.6133 353.345 36.0667 353.838 36.4C354.332 36.72 354.898 36.88 355.538 36.88ZM367.36 42.38C366.707 42.38 366.047 42.2867 365.38 42.1C364.727 41.9267 364.12 41.68 363.56 41.36L364.18 40.24C364.78 40.5467 365.327 40.7733 365.82 40.92C366.313 41.0667 366.807 41.14 367.3 41.14C368.193 41.14 368.867 40.9267 369.32 40.5C369.787 40.0733 370.02 39.4533 370.02 38.64V36.68C369.647 37.1467 369.193 37.5067 368.66 37.76C368.127 38 367.54 38.12 366.9 38.12C366.06 38.12 365.3 37.9 364.62 37.46C363.94 37.0067 363.4 36.4067 363 35.66C362.6 34.9 362.4 34.0533 362.4 33.12C362.4 32.1867 362.6 31.3467 363 30.6C363.413 29.84 363.967 29.24 364.66 28.8C365.353 28.3467 366.127 28.12 366.98 28.12C367.593 28.12 368.16 28.24 368.68 28.48C369.2 28.7067 369.653 29.0467 370.04 29.5V28.24H371.48V38.62C371.48 39.8333 371.127 40.76 370.42 41.4C369.713 42.0533 368.693 42.38 367.36 42.38ZM367.26 36.86C367.833 36.86 368.36 36.7467 368.84 36.52C369.32 36.28 369.713 35.9533 370.02 35.54V30.72C369.7 30.3067 369.293 29.9867 368.8 29.76C368.32 29.52 367.807 29.4 367.26 29.4C366.607 29.4 366.02 29.56 365.5 29.88C364.993 30.2 364.587 30.64 364.28 31.2C363.987 31.76 363.84 32.4 363.84 33.12C363.84 33.8267 363.987 34.4667 364.28 35.04C364.587 35.6 364.993 36.0467 365.5 36.38C366.02 36.7 366.607 36.86 367.26 36.86ZM374.48 38V23.56L375.94 23.26V38H374.48ZM383.334 38.2C382.427 38.2 381.607 37.98 380.874 37.54C380.14 37.0867 379.56 36.48 379.134 35.72C378.707 34.9467 378.494 34.08 378.494 33.12C378.494 32.16 378.694 31.3 379.094 30.54C379.507 29.78 380.06 29.18 380.754 28.74C381.447 28.3 382.22 28.08 383.074 28.08C383.94 28.08 384.707 28.3 385.374 28.74C386.054 29.1667 386.587 29.7533 386.974 30.5C387.374 31.2333 387.574 32.0667 387.574 33V33.44H379.914C379.967 34.1067 380.147 34.7067 380.454 35.24C380.774 35.76 381.187 36.1733 381.694 36.48C382.214 36.7733 382.78 36.92 383.394 36.92C383.9 36.92 384.387 36.8333 384.854 36.66C385.334 36.4733 385.74 36.2267 386.074 35.92L386.994 36.9C386.434 37.34 385.854 37.6667 385.254 37.88C384.654 38.0933 384.014 38.2 383.334 38.2ZM379.954 32.4H386.134C386.067 31.8133 385.887 31.2933 385.594 30.84C385.314 30.3733 384.954 30.0067 384.514 29.74C384.087 29.4733 383.607 29.34 383.074 29.34C382.54 29.34 382.054 29.4733 381.614 29.74C381.174 29.9933 380.807 30.3533 380.514 30.82C380.234 31.2733 380.047 31.8 379.954 32.4Z" fill="#0D606F"/>
</g>
<defs>
<filter id="filter0_dd_112_96" x="0" y="0" width="566" height="64" filterUnits="userSpaceOnUse" color-interpolation-filters="sRGB">
<feFlood flood-opacity="0" result="BackgroundImageFix"/>
<feColorMatrix in="SourceAlpha" type="matrix" values="0 0 0 0 0 0 0 0 0 0 0 0 0 0 0 0 0 0 127 0" result="hardAlpha"/>
<feOffset dy="2"/>
<feGaussianBlur stdDeviation="1.5"/>
<feColorMatrix type="matrix" values="0 0 0 0 0.0509804 0 0 0 0 0.376471 0 0 0 0 0.435294 0 0 0 0.16 0"/>
<feBlend mode="normal" in2="BackgroundImageFix" result="effect1_dropShadow_112_96"/>
<feColorMatrix in="SourceAlpha" type="matrix" values="0 0 0 0 0 0 0 0 0 0 0 0 0 0 0 0 0 0 127 0" result="hardAlpha"/>
<feOffset/>
<feGaussianBlur stdDeviation="1.5"/>
<feColorMatrix type="matrix" values="0 0 0 0 0.0509804 0 0 0 0 0.376471 0 0 0 0 0.435294 0 0 0 0.08 0"/>
<feBlend mode="normal" in2="effect1_dropShadow_112_96" result="effect2_dropShadow_112_96"/>
<feBlend mode="normal" in="SourceGraphic" in2="effect2_dropShadow_112_96" result="shape"/>
</filter>
</defs>
</svg>
